# xmcd
#
# Track frame offsets:
#	150
#	17665
#	36545
#	52050
#	65527
#	86617
#	113415
#	130232
#	149977
#	171030
#	189052
#	206952
#
# Disc length: 3053 seconds
#
# Revision: 1
# Processed by: cddbd v1.4PL0 Copyright (c) Steve Scherf et al.
# Submitted via: audiograbber 1.81.03
#
DISCID=b10beb0c
DTITLE=Quartette - The`Beauty of the Day
DYEAR=1996
DGENRE=
TTITLE0=I Don't Want To Cry
TTITLE1=Me and My Love and I
TTITLE2=Sentinel Crow
TTITLE3=In The Beauty of the Day
TTITLE4=Ask Me
TTITLE5=All Things Can Change
TTITLE6=E.Z
TTITLE7=I Don't Believe I Do Believe
TTITLE8=A`Love That Just Won't Stray
TTITLE9=I Walk These Rails
TTITLE10=Long Chain of Love
TTITLE11=Rain on the Highway
EXTD=
EXTT0=
EXTT1=
EXTT2=
EXTT3=
EXTT4=
EXTT5=
EXTT6=
EXTT7=
EXTT8=
EXTT9=
EXTT10=
EXTT11=
PLAYORDER=
